<svg width="50" height="50" viewBox="0 0 50 50" fill="none" xmlns="http://www.w3.org/2000/svg">
<path d="M10.4166 25C10.4166 33.0541 16.9458 39.5833 25 39.5833C33.0541 39.5833 39.5833 33.0541 39.5833 25C39.5833 16.9458 33.0541 10.4166 25 10.4166C16.9458 10.4166 10.4166 16.9458 10.4166 25Z" stroke="black" stroke-width="2.99899" stroke-linecap="round" stroke-linejoin="round"/>
<path d="M38.2713 31.0537C38.8759 31.14 39.978 31.25 41.6666 31.25C41.7916 31.25 41.9133 31.2494 42.0318 31.2482C44.2088 31.2271 45.7649 29.5135 45.8103 27.337C45.8243 26.6615 45.8333 25.8844 45.8333 25C45.8333 24.1156 45.8243 23.3385 45.8103 22.663C45.7649 20.4865 44.2088 18.7729 42.0318 18.7518C41.9133 18.7506 41.7916 18.75 41.6666 18.75C39.978 18.75 38.8759 18.86 38.2713 18.9463M11.7286 31.0537C11.124 31.14 10.0219 31.25 8.33329 31.25C8.20834 31.25 8.08659 31.2494 7.96803 31.2482C5.79109 31.2271 4.23502 29.5135 4.18965 27.337C4.17556 26.6615 4.16663 25.8844 4.16663 25C4.16663 24.1156 4.17556 23.3385 4.18965 22.663C4.23502 20.4865 5.79111 18.7729 7.96804 18.7518C8.08661 18.7506 8.20834 18.75 8.33329 18.75C10.0219 18.75 11.124 18.86 11.7286 18.9463V31.0537Z" stroke="black" stroke-width="2.99899" stroke-linecap="round" stroke-linejoin="round"/>
<path d="M19.7916 19.7916V21.8743" stroke="black" stroke-width="2.99899" stroke-linecap="round" stroke-linejoin="round"/>
<path d="M30.2084 19.7916V21.8743" stroke="black" stroke-width="2.99899" stroke-linecap="round" stroke-linejoin="round"/>
<path d="M41.6667 18.75C41.6667 10.1206 34.2048 3.125 25 3.125C15.7952 3.125 8.33337 10.1206 8.33337 18.75" stroke="black" stroke-width="2.99899" stroke-linecap="round" stroke-linejoin="round"/>
<path d="M41.6667 31.25C41.6667 39.8795 34.2048 46.875 25 46.875" stroke="black" stroke-width="2.99899" stroke-linecap="round" stroke-linejoin="round"/>
<path d="M31.25 29.1666C28.5156 33.3333 21.4844 33.3333 18.75 29.1666" stroke="black" stroke-width="2.99899" stroke-linecap="round" stroke-linejoin="round"/>
</svg>
