<?xml version="1.0" encoding="utf-8"?>
<!-- Generator: Adobe Illustrator 24.0.1, SVG Export Plug-In . SVG Version: 6.00 Build 0)  -->
<svg version="1.1" id="Warstwa_1" xmlns="http://www.w3.org/2000/svg" xmlns:xlink="http://www.w3.org/1999/xlink" x="0px" y="0px"
	 viewBox="0 0 1000 1000" style="enable-background:new 0 0 1000 1000;" xml:space="preserve">
<style type="text/css">
	.st0{fill:#FFFFFF;}
</style>
<g>
	<g>
		<g>
			<polygon class="st0" points="182.52,571.64 182.32,572.02 158.92,572.02 159.13,571.64 			"/>
			<path class="st0" d="M310,571.64h-23.4l-1.54-2.95l-11.7-22.29l-13.85-26.37l-11.69-22.28l-13.25-25.22l-41.37,78.78h47.17
				c-2.66,6.78-5.3,13.55-7.96,20.33h-73.28l10.67-20.33l53.07-101.06l11.69-22.28l11.7,22.28l13.24,25.22l8.83-16.8l2.3-4.38
				l2.8-5.32l5.79-11.02h23.4l-5.79,11.02l-2.8,5.32l-2.3,4.38l-9.4,17.89l-11.12,21.18l13.84,26.37l11.7,22.29L310,571.64z"/>
			<polygon class="st0" points="232.4,571.64 232.2,572.02 158.92,572.02 159.13,571.64 			"/>
			<polygon class="st0" points="355.64,571.64 332.25,571.64 307.88,525.23 296.18,502.94 307.87,480.68 307.87,480.67 
				319.42,458.68 324.52,448.97 330.31,437.96 353.72,437.96 347.93,448.97 342.83,458.68 319.58,502.95 			"/>
			<polygon class="st0" points="232.4,571.64 232.2,572.02 158.92,572.02 159.13,571.64 			"/>
		</g>
	</g>
	<g>
		<path class="st0" d="M385.32,500.5l13.25-50.4h16.56l13.25,50.4h-9.79l-2.74-11.09h-18l-2.74,11.09H385.32z M400.08,480.63h13.54
			l-6.12-24.55h-1.3L400.08,480.63z"/>
		<path class="st0" d="M450.91,501.51c-2.83,0-5.48-0.71-7.96-2.12c-2.47-1.42-4.45-3.49-5.94-6.23c-1.49-2.74-2.23-6.05-2.23-9.94
			v-1.15c0-3.89,0.74-7.2,2.23-9.94c1.49-2.74,3.46-4.81,5.9-6.23c2.45-1.42,5.11-2.12,7.99-2.12c2.16,0,3.97,0.25,5.44,0.76
			c1.46,0.5,2.65,1.14,3.56,1.91c0.91,0.77,1.61,1.58,2.09,2.45h1.3V450.1h9.07v50.4h-8.93v-4.32h-1.3
			c-0.82,1.34-2.08,2.57-3.78,3.67C456.66,500.96,454.18,501.51,450.91,501.51z M453.65,493.59c2.78,0,5.11-0.9,6.98-2.7
			c1.87-1.8,2.81-4.43,2.81-7.88v-0.72c0-3.46-0.92-6.08-2.77-7.88c-1.85-1.8-4.19-2.7-7.02-2.7c-2.78,0-5.11,0.9-6.98,2.7
			c-1.87,1.8-2.81,4.43-2.81,7.88v0.72c0,3.46,0.94,6.08,2.81,7.88C448.54,492.69,450.86,493.59,453.65,493.59z"/>
		<path class="st0" d="M484.25,500.5v-35.71h8.93v4.03h1.3c0.53-1.44,1.4-2.5,2.63-3.17c1.22-0.67,2.65-1.01,4.28-1.01h4.32v8.06
			h-4.46c-2.3,0-4.2,0.61-5.69,1.84c-1.49,1.22-2.23,3.11-2.23,5.65v20.3H484.25z"/>
		<path class="st0" d="M519.1,460.62c-1.63,0-3.01-0.53-4.14-1.58c-1.13-1.06-1.69-2.45-1.69-4.18s0.56-3.12,1.69-4.18
			c1.13-1.06,2.51-1.58,4.14-1.58c1.68,0,3.07,0.53,4.18,1.58c1.1,1.06,1.66,2.45,1.66,4.18s-0.55,3.12-1.66,4.18
			C522.17,460.09,520.78,460.62,519.1,460.62z M514.56,500.5v-35.71h9.07v35.71H514.56z"/>
		<path class="st0" d="M546.6,501.51c-2.54,0-4.82-0.44-6.84-1.33c-2.02-0.89-3.61-2.18-4.79-3.89c-1.18-1.7-1.76-3.78-1.76-6.23
			c0-2.45,0.59-4.5,1.76-6.16c1.18-1.66,2.81-2.9,4.9-3.74s4.47-1.26,7.16-1.26h9.79v-2.02c0-1.68-0.53-3.06-1.58-4.14
			c-1.06-1.08-2.74-1.62-5.04-1.62c-2.26,0-3.94,0.52-5.04,1.55c-1.11,1.03-1.83,2.36-2.16,4l-8.35-2.81c0.58-1.82,1.5-3.49,2.77-5
			c1.27-1.51,2.98-2.74,5.11-3.67c2.13-0.94,4.74-1.4,7.81-1.4c4.7,0,8.42,1.18,11.16,3.53c2.74,2.35,4.1,5.76,4.1,10.22v13.32
			c0,1.44,0.67,2.16,2.02,2.16h2.88v7.49h-6.05c-1.78,0-3.24-0.43-4.39-1.3c-1.15-0.86-1.73-2.02-1.73-3.46v-0.07h-1.37
			c-0.19,0.58-0.62,1.33-1.3,2.27c-0.67,0.94-1.73,1.76-3.17,2.48C551.06,501.15,549.09,501.51,546.6,501.51z M548.18,494.17
			c2.54,0,4.62-0.71,6.23-2.12c1.61-1.42,2.41-3.3,2.41-5.65v-0.72h-9.14c-1.68,0-3,0.36-3.96,1.08c-0.96,0.72-1.44,1.73-1.44,3.02
			c0,1.3,0.5,2.35,1.51,3.17S546.26,494.17,548.18,494.17z"/>
		<path class="st0" d="M578.93,500.5v-35.71h8.93v4.68h1.3c0.58-1.25,1.66-2.44,3.24-3.56c1.58-1.13,3.98-1.69,7.2-1.69
			c2.78,0,5.22,0.64,7.31,1.91c2.09,1.27,3.71,3.02,4.86,5.26c1.15,2.23,1.73,4.84,1.73,7.81v21.31h-9.07v-20.59
			c0-2.69-0.66-4.7-1.98-6.05c-1.32-1.34-3.2-2.02-5.65-2.02c-2.78,0-4.94,0.92-6.48,2.77c-1.54,1.85-2.3,4.43-2.3,7.74v18.14
			H578.93z"/>
		<path class="st0" d="M644.88,500.5v-50.4h9.5v20.02h1.3l16.34-20.02h12.17l-21.02,24.84l21.74,25.56h-12.53l-16.7-20.45h-1.3
			v20.45H644.88z"/>
		<path class="st0" d="M707.3,501.51c-3.55,0-6.68-0.76-9.4-2.27c-2.71-1.51-4.82-3.65-6.34-6.41c-1.51-2.76-2.27-6.01-2.27-9.76
			v-0.86c0-3.74,0.74-7,2.23-9.76c1.49-2.76,3.58-4.9,6.26-6.41c2.69-1.51,5.81-2.27,9.36-2.27c3.5,0,6.55,0.78,9.14,2.34
			c2.59,1.56,4.61,3.72,6.05,6.48c1.44,2.76,2.16,5.96,2.16,9.61v3.1h-25.99c0.1,2.45,1.01,4.44,2.74,5.98
			c1.73,1.54,3.84,2.3,6.34,2.3c2.54,0,4.42-0.55,5.62-1.66c1.2-1.1,2.11-2.33,2.74-3.67l7.42,3.89c-0.67,1.25-1.64,2.6-2.92,4.07
			c-1.27,1.46-2.96,2.71-5.08,3.74S710.57,501.51,707.3,501.51z M698.59,478.54h16.7c-0.19-2.06-1.02-3.72-2.48-4.97
			c-1.46-1.25-3.37-1.87-5.72-1.87c-2.45,0-4.39,0.62-5.83,1.87C699.81,474.82,698.93,476.48,698.59,478.54z"/>
		<path class="st0" d="M734.37,500.5v-50.4h9.07v50.4H734.37z"/>
		<path class="st0" d="M755.33,500.5v-50.4h9.07v50.4H755.33z"/>
		<path class="st0" d="M792.55,501.51c-3.55,0-6.68-0.76-9.4-2.27c-2.71-1.51-4.82-3.65-6.34-6.41c-1.51-2.76-2.27-6.01-2.27-9.76
			v-0.86c0-3.74,0.74-7,2.23-9.76c1.49-2.76,3.58-4.9,6.26-6.41c2.69-1.51,5.81-2.27,9.36-2.27c3.5,0,6.55,0.78,9.14,2.34
			c2.59,1.56,4.61,3.72,6.05,6.48c1.44,2.76,2.16,5.96,2.16,9.61v3.1h-25.99c0.1,2.45,1.01,4.44,2.74,5.98
			c1.73,1.54,3.84,2.3,6.34,2.3c2.54,0,4.42-0.55,5.62-1.66c1.2-1.1,2.11-2.33,2.74-3.67l7.42,3.89c-0.67,1.25-1.65,2.6-2.92,4.07
			c-1.27,1.46-2.96,2.71-5.08,3.74C798.5,501,795.81,501.51,792.55,501.51z M783.84,478.54h16.7c-0.19-2.06-1.02-3.72-2.48-4.97
			c-1.46-1.25-3.37-1.87-5.72-1.87c-2.45,0-4.39,0.62-5.83,1.87C785.06,474.82,784.17,476.48,783.84,478.54z"/>
		<path class="st0" d="M819.62,500.5v-35.71h8.93v4.03h1.3c0.53-1.44,1.4-2.5,2.63-3.17c1.22-0.67,2.65-1.01,4.28-1.01h4.32v8.06
			h-4.46c-2.3,0-4.2,0.61-5.69,1.84c-1.49,1.22-2.23,3.11-2.23,5.65v20.3H819.62z"/>
		<path class="st0" d="M395.29,544.21c-1.82,0-3.46-0.32-4.9-0.97c-1.44-0.65-2.57-1.63-3.4-2.93c-0.83-1.31-1.24-2.95-1.24-4.91
			v-0.76h2.99v0.76c0,2.09,0.61,3.64,1.84,4.66c1.22,1.02,2.8,1.53,4.72,1.53c1.97,0,3.47-0.44,4.5-1.33c1.03-0.89,1.55-2,1.55-3.35
			c0-0.94-0.23-1.68-0.7-2.23c-0.47-0.55-1.12-1-1.96-1.35c-0.84-0.35-1.82-0.65-2.95-0.92l-1.87-0.47
			c-1.46-0.38-2.76-0.85-3.89-1.4c-1.13-0.55-2.01-1.28-2.65-2.18c-0.64-0.9-0.95-2.06-0.95-3.47s0.35-2.64,1.06-3.67
			c0.71-1.03,1.7-1.82,2.99-2.38c1.28-0.55,2.77-0.83,4.45-0.83c1.7,0,3.23,0.29,4.59,0.88c1.36,0.59,2.42,1.45,3.2,2.59
			c0.78,1.14,1.17,2.57,1.17,4.3v1.51h-2.99v-1.51c0-1.22-0.26-2.21-0.77-2.95c-0.52-0.74-1.22-1.3-2.12-1.66
			c-0.9-0.36-1.93-0.54-3.08-0.54c-1.66,0-2.99,0.37-4,1.1c-1.01,0.73-1.51,1.77-1.51,3.11c0,0.89,0.22,1.61,0.65,2.16
			c0.43,0.55,1.04,1,1.84,1.35s1.74,0.65,2.84,0.92l1.87,0.47c1.46,0.31,2.78,0.74,3.94,1.28c1.16,0.54,2.09,1.27,2.79,2.2
			c0.7,0.92,1.04,2.13,1.04,3.62s-0.37,2.78-1.12,3.89c-0.74,1.1-1.79,1.96-3.15,2.57C398.71,543.9,397.12,544.21,395.29,544.21z"/>
		<path class="st0" d="M411.78,543.7v-25.2h2.84v14.83h0.5l8.06-7.24h3.96l-9.76,8.57l10.04,9.04h-3.92l-8.39-7.67h-0.5v7.67H411.78
			z"/>
		<path class="st0" d="M433.85,543.7v-25.2h2.84v25.2H433.85z"/>
		<path class="st0" d="M453.43,544.21c-1.78,0-3.34-0.38-4.68-1.13s-2.39-1.82-3.13-3.19c-0.74-1.37-1.12-2.95-1.12-4.75v-0.43
			c0-1.82,0.37-3.42,1.12-4.79c0.74-1.37,1.78-2.43,3.1-3.19c1.32-0.76,2.83-1.13,4.54-1.13c1.66,0,3.12,0.35,4.39,1.06
			c1.27,0.71,2.27,1.72,2.99,3.04c0.72,1.32,1.08,2.87,1.08,4.64v1.3h-14.36c0.07,1.9,0.68,3.38,1.84,4.45
			c1.15,1.07,2.59,1.6,4.32,1.6c1.51,0,2.68-0.35,3.49-1.04c0.82-0.7,1.44-1.52,1.87-2.48l2.45,1.19c-0.36,0.75-0.86,1.49-1.49,2.23
			c-0.64,0.74-1.46,1.37-2.48,1.87S455.02,544.21,453.43,544.21z M447.39,533.3h11.45c-0.1-1.63-0.65-2.9-1.67-3.82
			c-1.02-0.91-2.32-1.37-3.91-1.37c-1.61,0-2.93,0.46-3.96,1.37S447.63,531.67,447.39,533.3z"/>
		<path class="st0" d="M469.38,550.9v-24.8h2.77v2.92h0.5c0.46-0.89,1.19-1.68,2.21-2.38c1.02-0.7,2.44-1.04,4.27-1.04
			c1.51,0,2.9,0.37,4.16,1.1s2.27,1.77,3.02,3.11c0.76,1.34,1.13,2.96,1.13,4.86v0.47c0,1.87-0.37,3.49-1.12,4.86
			c-0.74,1.37-1.75,2.41-3.01,3.13s-2.66,1.08-4.19,1.08c-1.22,0-2.26-0.16-3.11-0.49c-0.85-0.32-1.54-0.74-2.07-1.24
			c-0.53-0.5-0.94-1.02-1.22-1.55h-0.5v9.97H469.38z M478.38,541.69c1.82,0,3.31-0.58,4.45-1.75c1.14-1.16,1.71-2.79,1.71-4.88
			v-0.32c0-2.09-0.57-3.71-1.71-4.88c-1.14-1.16-2.62-1.75-4.45-1.75c-1.8,0-3.28,0.58-4.45,1.75s-1.75,2.79-1.75,4.88v0.32
			c0,2.09,0.58,3.71,1.75,4.88S476.58,541.69,478.38,541.69z"/>
		<path class="st0" d="M507.11,543.7v-25.2h3.02v10.98h0.5l10.66-10.98h4.03l-12.28,12.46l12.71,12.74h-4.14l-10.98-11.2h-0.5v11.2
			H507.11z"/>
		<path class="st0" d="M539.29,544.21c-1.78,0-3.34-0.37-4.7-1.12c-1.36-0.74-2.41-1.79-3.17-3.15c-0.76-1.36-1.13-2.96-1.13-4.81
			v-0.47c0-1.82,0.38-3.42,1.13-4.79c0.76-1.37,1.81-2.42,3.17-3.17c1.36-0.74,2.92-1.12,4.7-1.12s3.34,0.37,4.7,1.12
			c1.36,0.74,2.41,1.8,3.17,3.17s1.13,2.96,1.13,4.79v0.47c0,1.85-0.38,3.45-1.13,4.81s-1.81,2.41-3.17,3.15
			C542.63,543.84,541.07,544.21,539.29,544.21z M539.29,541.65c1.87,0,3.37-0.59,4.48-1.78c1.12-1.19,1.67-2.79,1.67-4.81v-0.32
			c0-2.02-0.56-3.62-1.67-4.81c-1.12-1.19-2.61-1.78-4.48-1.78c-1.85,0-3.34,0.59-4.46,1.78c-1.13,1.19-1.69,2.79-1.69,4.81v0.32
			c0,2.02,0.56,3.62,1.69,4.81C535.96,541.06,537.44,541.65,539.29,541.65z"/>
		<path class="st0" d="M556.1,543.7v-17.6h2.77v2.2h0.5c0.33-0.62,0.89-1.2,1.66-1.73c0.77-0.53,1.85-0.79,3.24-0.79
			c1.37,0,2.48,0.3,3.33,0.9c0.85,0.6,1.47,1.33,1.85,2.2h0.5c0.41-0.86,1.03-1.6,1.85-2.2c0.83-0.6,1.99-0.9,3.47-0.9
			c1.18,0,2.21,0.24,3.1,0.72c0.89,0.48,1.59,1.17,2.11,2.07c0.52,0.9,0.77,1.97,0.77,3.22v11.92h-2.84v-11.66
			c0-1.18-0.34-2.11-1.03-2.79c-0.68-0.68-1.64-1.03-2.86-1.03c-1.3,0-2.36,0.42-3.19,1.26s-1.24,2.05-1.24,3.64v10.58h-2.84v-11.66
			c0-1.18-0.34-2.11-1.03-2.79c-0.68-0.68-1.64-1.03-2.86-1.03c-1.3,0-2.36,0.42-3.19,1.26s-1.24,2.05-1.24,3.64v10.58H556.1z"/>
		<path class="st0" d="M589.76,550.9v-24.8h2.77v2.92h0.5c0.46-0.89,1.19-1.68,2.21-2.38c1.02-0.7,2.44-1.04,4.27-1.04
			c1.51,0,2.9,0.37,4.16,1.1s2.27,1.77,3.02,3.11c0.76,1.34,1.13,2.96,1.13,4.86v0.47c0,1.87-0.37,3.49-1.12,4.86
			c-0.74,1.37-1.75,2.41-3.01,3.13s-2.66,1.08-4.19,1.08c-1.22,0-2.26-0.16-3.11-0.49c-0.85-0.32-1.54-0.74-2.07-1.24
			c-0.53-0.5-0.94-1.02-1.22-1.55h-0.5v9.97H589.76z M598.76,541.69c1.82,0,3.31-0.58,4.45-1.75c1.14-1.16,1.71-2.79,1.71-4.88
			v-0.32c0-2.09-0.57-3.71-1.71-4.88c-1.14-1.16-2.62-1.75-4.45-1.75c-1.8,0-3.28,0.58-4.45,1.75s-1.75,2.79-1.75,4.88v0.32
			c0,2.09,0.58,3.71,1.75,4.88S596.96,541.69,598.76,541.69z"/>
		<path class="st0" d="M622.38,544.03c-1.27,0-2.44-0.28-3.51-0.83c-1.07-0.55-1.91-1.37-2.52-2.47c-0.61-1.09-0.92-2.42-0.92-3.98
			V526.1h2.84v10.44c0,1.75,0.44,3.02,1.31,3.82s2.06,1.19,3.55,1.19c1.68,0,3.06-0.55,4.14-1.66c1.08-1.1,1.62-2.75,1.62-4.93
			v-8.86h2.84v17.6h-2.77v-2.99h-0.5c-0.38,0.84-1.04,1.6-1.98,2.29C625.55,543.69,624.18,544.03,622.38,544.03z"/>
		<path class="st0" d="M646.86,543.7c-1.01,0-1.78-0.28-2.32-0.83c-0.54-0.55-0.81-1.31-0.81-2.27v-12.02h-5.29v-2.48h5.29v-6.26
			h2.84v6.26h5.76v2.48h-5.76v11.59c0,0.72,0.35,1.08,1.04,1.08h3.92v2.45H646.86z"/>
		<path class="st0" d="M667.06,544.21c-1.78,0-3.34-0.38-4.68-1.13c-1.34-0.76-2.39-1.82-3.13-3.19c-0.75-1.37-1.12-2.95-1.12-4.75
			v-0.43c0-1.82,0.37-3.42,1.12-4.79c0.74-1.37,1.78-2.43,3.1-3.19c1.32-0.76,2.83-1.13,4.54-1.13c1.66,0,3.12,0.35,4.39,1.06
			c1.27,0.71,2.27,1.72,2.99,3.04c0.72,1.32,1.08,2.87,1.08,4.64v1.3h-14.36c0.07,1.9,0.68,3.38,1.84,4.45
			c1.15,1.07,2.59,1.6,4.32,1.6c1.51,0,2.68-0.35,3.49-1.04c0.82-0.7,1.44-1.52,1.87-2.48l2.45,1.19c-0.36,0.75-0.86,1.49-1.49,2.23
			c-0.64,0.74-1.46,1.37-2.48,1.87C669.94,543.96,668.64,544.21,667.06,544.21z M661.01,533.3h11.45c-0.1-1.63-0.65-2.9-1.67-3.82
			c-1.02-0.91-2.32-1.37-3.91-1.37c-1.61,0-2.93,0.46-3.96,1.37C661.88,530.4,661.25,531.67,661.01,533.3z"/>
		<path class="st0" d="M683,543.7v-17.6h2.77v2.16h0.5c0.31-0.77,0.79-1.33,1.44-1.69c0.65-0.36,1.5-0.54,2.56-0.54h2.09v2.59h-2.27
			c-1.27,0-2.3,0.35-3.08,1.06c-0.78,0.71-1.17,1.81-1.17,3.29v10.73H683z"/>
		<path class="st0" d="M706.76,544.21c-1.78,0-3.34-0.37-4.7-1.12c-1.36-0.74-2.41-1.79-3.17-3.15c-0.76-1.36-1.13-2.96-1.13-4.81
			v-0.47c0-1.82,0.38-3.42,1.13-4.79c0.76-1.37,1.81-2.42,3.17-3.17c1.36-0.74,2.92-1.12,4.7-1.12s3.34,0.37,4.7,1.12
			c1.36,0.74,2.41,1.8,3.17,3.17s1.13,2.96,1.13,4.79v0.47c0,1.85-0.38,3.45-1.13,4.81s-1.81,2.41-3.17,3.15
			C710.11,543.84,708.54,544.21,706.76,544.21z M706.76,541.65c1.87,0,3.37-0.59,4.48-1.78c1.12-1.19,1.67-2.79,1.67-4.81v-0.32
			c0-2.02-0.56-3.62-1.67-4.81c-1.12-1.19-2.61-1.78-4.48-1.78c-1.85,0-3.34,0.59-4.46,1.78c-1.13,1.19-1.69,2.79-1.69,4.81v0.32
			c0,2.02,0.56,3.62,1.69,4.81C703.43,541.06,704.92,541.65,706.76,541.65z"/>
		<path class="st0" d="M725.66,543.7l-3.53-17.6h2.88l2.92,15.7h0.5l3.85-15.7H737l3.85,15.7h0.5l2.92-15.7h2.88l-3.53,17.6h-4.86
			l-3.89-15.7h-0.47l-3.89,15.7H725.66z"/>
		<path class="st0" d="M756.88,550.9v-2.52h10.08c0.7,0,1.04-0.36,1.04-1.08v-6.41h-0.5c-0.24,0.5-0.61,1-1.1,1.49
			c-0.49,0.49-1.13,0.89-1.93,1.19s-1.79,0.45-2.99,0.45c-1.27,0-2.44-0.28-3.51-0.83c-1.07-0.55-1.91-1.37-2.52-2.45
			c-0.61-1.08-0.92-2.4-0.92-3.96V526.1h2.84v10.48c0,1.73,0.44,2.99,1.31,3.78s2.06,1.19,3.55,1.19c1.68,0,3.06-0.55,4.14-1.66
			c1.08-1.1,1.62-2.75,1.62-4.93v-8.86h2.84v21.71c0,0.96-0.27,1.72-0.81,2.27c-0.54,0.55-1.33,0.83-2.36,0.83H756.88z"/>
	</g>
</g>
</svg>
