<svg width="50" height="50" viewBox="0 0 50 50" fill="none" xmlns="http://www.w3.org/2000/svg">
<path d="M6.25 25H3.125" stroke="black" stroke-width="2.99899" stroke-linecap="round" stroke-linejoin="round"/>
<path d="M46.875 25H43.75" stroke="black" stroke-width="2.99899" stroke-linecap="round" stroke-linejoin="round"/>
<path d="M25 6.25V3.125" stroke="black" stroke-width="2.99899" stroke-linecap="round" stroke-linejoin="round"/>
<path d="M11.741 11.741L9.53198 9.53198" stroke="black" stroke-width="2.99899" stroke-linecap="round" stroke-linejoin="round"/>
<path d="M38.2587 11.7406L40.4676 9.53162" stroke="black" stroke-width="2.99899" stroke-linecap="round" stroke-linejoin="round"/>
<path d="M17.2611 35.8586C14.3612 33.5694 12.5 30.0229 12.5 26.0416C12.5 19.1381 18.0965 13.5416 25 13.5416C31.9035 13.5416 37.5 19.1381 37.5 26.0416C37.5 30.0229 35.6387 33.5694 32.7389 35.8586C32.5582 36.7853 32.374 37.6469 32.2181 38.3459C31.9799 39.4153 31.1689 40.2385 30.0811 40.37C28.9953 40.5012 27.3487 40.625 25 40.625C22.6512 40.625 21.0047 40.5012 19.9189 40.37C18.8311 40.2385 18.0201 39.4153 17.7819 38.3459C17.626 37.6469 17.4418 36.7853 17.2611 35.8586Z" stroke="black" stroke-width="2.99899" stroke-linecap="round" stroke-linejoin="round"/>
<path d="M18.9171 40.0137C19.1044 41.5159 19.3296 42.9405 19.5193 44.0464C19.7543 45.417 20.7122 46.5287 22.0916 46.7051C22.8484 46.8019 23.8128 46.875 25 46.875C26.0913 46.875 27.0321 46.8132 27.8106 46.728C29.4472 46.549 30.576 45.1787 30.7423 43.5406L31.1017 40.0015" stroke="black" stroke-width="2.99899" stroke-linecap="round" stroke-linejoin="round"/>
<path d="M31.25 26.0416C31.25 22.5899 28.4518 19.7916 25 19.7916" stroke="black" stroke-width="2.99899" stroke-linecap="round" stroke-linejoin="round"/>
</svg>
