<svg width="25" height="25" viewBox="0 0 25 25" fill="none" xmlns="http://www.w3.org/2000/svg">
<path d="M2.08337 7.2915L10.5885 13.2451C11.2772 13.7272 11.6216 13.9682 11.9961 14.0616C12.327 14.1441 12.6731 14.1441 13.0039 14.0616C13.3785 13.9682 13.7229 13.7272 14.4116 13.2451L22.9167 7.2915M7.08337 20.8332H17.9167C19.6669 20.8332 20.542 20.8332 21.2104 20.4926C21.7984 20.193 22.2765 19.7149 22.5761 19.1269C22.9167 18.4584 22.9167 17.5833 22.9167 15.8332V9.1665C22.9167 7.41634 22.9167 6.54126 22.5761 5.87278C22.2765 5.28478 21.7984 4.80671 21.2104 4.50711C20.542 4.1665 19.6669 4.1665 17.9167 4.1665H7.08337C5.33321 4.1665 4.45813 4.1665 3.78965 4.50711C3.20165 4.80671 2.72358 5.28478 2.42398 5.87278C2.08337 6.54126 2.08337 7.41634 2.08337 9.1665V15.8332C2.08337 17.5833 2.08337 18.4584 2.42398 19.1269C2.72358 19.7149 3.20165 20.193 3.78965 20.4926C4.45813 20.8332 5.33321 20.8332 7.08337 20.8332Z" stroke="#DDBC4A" stroke-width="2" stroke-linecap="round" stroke-linejoin="round"/>
</svg>
