<svg width="25" height="25" viewBox="0 0 25 25" fill="none" xmlns="http://www.w3.org/2000/svg">
<path d="M14.6351 6.25016C15.6525 6.44867 16.5876 6.94626 17.3206 7.67926C18.0536 8.41226 18.5512 9.34731 18.7497 10.3647M14.6351 2.0835C16.7489 2.31833 18.7201 3.26493 20.2249 4.76788C21.7298 6.27083 22.6789 8.2408 22.9164 10.3543M10.6528 14.4409C9.40115 13.1892 8.41283 11.774 7.68783 10.2639C7.62547 10.1341 7.59429 10.0691 7.57033 9.98694C7.4852 9.6949 7.54635 9.3363 7.72345 9.08898C7.77328 9.01938 7.83282 8.95984 7.95189 8.84077C8.31607 8.47659 8.49815 8.29451 8.6172 8.11141C9.06615 7.42089 9.06615 6.53071 8.6172 5.8402C8.49815 5.65709 8.31607 5.47501 7.95189 5.11083L7.7489 4.90784C7.19532 4.35426 6.91852 4.07747 6.62125 3.92711C6.03004 3.62808 5.33185 3.62808 4.74064 3.92711C4.44337 4.07747 4.16658 4.35426 3.61299 4.90784L3.44879 5.07205C2.8971 5.62374 2.62125 5.89958 2.41058 6.27462C2.17681 6.69077 2.00872 7.33711 2.01014 7.81443C2.01142 8.24458 2.09486 8.53856 2.26174 9.12653C3.15859 12.2863 4.85075 15.2679 7.33823 17.7554C9.82571 20.2429 12.8073 21.9351 15.9671 22.8319C16.5551 22.9988 16.8491 23.0822 17.2792 23.0835C17.7565 23.0849 18.4029 22.9168 18.819 22.6831C19.1941 22.4724 19.4699 22.1966 20.0216 21.6449L20.1858 21.4807C20.7394 20.9271 21.0162 20.6503 21.1665 20.353C21.4656 19.7618 21.4656 19.0636 21.1665 18.4724C21.0162 18.1751 20.7394 17.8983 20.1858 17.3447L19.9828 17.1418C19.6186 16.7776 19.4366 16.5955 19.2535 16.4764C18.5629 16.0275 17.6728 16.0275 16.9822 16.4765C16.7991 16.5955 16.6171 16.7776 16.2529 17.1418C16.1338 17.2608 16.0743 17.3204 16.0047 17.3702C15.7574 17.5473 15.3987 17.6084 15.1067 17.5233C15.0245 17.4994 14.9596 17.4682 14.8297 17.4058C13.3197 16.6808 11.9044 15.6925 10.6528 14.4409Z" stroke="#DDBC4A" stroke-width="2" stroke-linecap="round" stroke-linejoin="round"/>
</svg>
